# xmcd
#
# Track frame offsets: 
#        150
#        13206
#        26237
#        43369
#        59156
#        71496
#        85434
#        103104
#        113738
#        126883
#        137547
#        150077
#
# Disc length: 2146 seconds
#
# Revision: 1
# Processed by: cddbd v1.5.2PL0 Copyright (c) Steve Scherf et al.
# Submitted via: ExactAudioCopyFreeDBPlugin 1.0
#
DISCID=a908600c
DTITLE=Various Artist - The Greatest Soul Music of Hits of All Time [
DTITLE=Rhino Custom Products]
DYEAR=2006
DGENRE=Soul
TTITLE0=Ben E. King - Stand By Me
TTITLE1=Percy Sledge - When A Man Loves A Woman
TTITLE2=Major Haris - Love Won't Let Me Wait
TTITLE3=The Staple Singers - Let's Do It Again
TTITLE4=The Capitols - Cool Jerk
TTITLE5=Eddie Floyd - Knock on Wood
TTITLE6=Curtis Mayfield - Superfly
TTITLE7=Carla Thomas - Gee Whiz (Look at His Eyes)
TTITLE8=Booker T. and the MG's - Green Onions
TTITLE9=The Bar-Kays - Soul Finger
TTITLE10=Otis Redding - (Sittin' On) The Dock of the Bay
TTITLE11=Aretha Franklin - Respect
EXTD=YEAR: 2006
EXTT0=
EXTT1=
EXTT2=
EXTT3=
EXTT4=
EXTT5=
EXTT6=
EXTT7=
EXTT8=
EXTT9=
EXTT10=
EXTT11=
PLAYORDER=
